<svg width="32" height="32" viewBox="0 0 32 32" fill="none" xmlns="http://www.w3.org/2000/svg">
<g clip-path="url(#clip0_54_365)">
<g clip-path="url(#clip1_54_365)">
<path d="M5.53308 31.9948L10.161 23.9806L14.7888 15.9947L19.3885 7.98055L20.1504 6.7107L20.489 7.98055L21.9 13.2575L20.3197 15.9947L15.6918 23.9806L11.0922 31.9948H16.6231L21.251 23.9806L23.6496 19.8324L24.7783 23.9806L26.9229 31.9948H31.8894L29.7448 23.9806L27.6002 15.9947L27.0358 13.9347L30.4785 7.98055H25.4556L25.2862 7.38796L23.5367 0.841193L23.3109 -0.00537109H18.4855L18.3726 0.163942L13.8576 7.98055L9.22975 15.9947L4.63008 23.9806L0.00219727 31.9948H5.53308Z" fill="black"/>
</g>
</g>
<defs>
<clipPath id="clip0_54_365">
<rect width="32" height="32" fill="white"/>
</clipPath>
<clipPath id="clip1_54_365">
<rect width="31.8872" height="32.0001" fill="white"/>
</clipPath>
</defs>
</svg>
