<svg width="32" height="32" viewBox="0 0 32 32" fill="none" xmlns="http://www.w3.org/2000/svg">
<g clip-path="url(#clip0_54_255)">
<g clip-path="url(#clip1_54_255)">
<path fill-rule="evenodd" clip-rule="evenodd" d="M5.7 5C5.2 2.4 7.2 0 9.8 0C12.1 0 14 1.9 14 4.2V9.4C14.6 9.4 15.2 9.3 15.8 9.3C16.4 9.3 16.9 9.3 17.5 9.4V4.2C17.5 1.9 19.4 0 21.7 0C24.3 0 26.3 2.4 25.9 5L24.8 11.1C28.7 12.8 31.7 15.8 31.7 19.5V21.8C31.7 24.9 29.7 27.5 26.8 29.2C23.9 31 20.1 32 15.8 32C11.5 32 7.7 31 4.8 29.2C2 27.5 0 24.9 0 21.8V19.5C0 15.8 2.9 12.8 6.8 11.1L5.7 5ZM23.3 11.9L24.6 4.7C24.9 2.9 23.6 1.2 21.7 1.2C20.1 1.2 18.8 2.5 18.8 4.1V10.7C18.4 10.6 17.9 10.6 17.5 10.6C16.9 10.6 16.4 10.5 15.8 10.5C15.2 10.5 14.6 10.5 14 10.6C13.6 10.6 13.1 10.7 12.7 10.7V4.2C12.7 2.6 11.4 1.3 9.8 1.3C8 1.3 6.6 3 7 4.8L8.3 12C4.1 13.6 1.3 16.4 1.3 19.6V21.9C1.3 26.8 7.8 30.8 15.8 30.8C23.8 30.8 30.3 26.8 30.3 21.9V19.6C30.4 16.3 27.6 13.5 23.3 11.9Z" fill="#633001"/>
<path d="M30.4 21.8C30.4 26.7 23.9 30.7 15.9 30.7C7.90002 30.7 1.40002 26.7 1.40002 21.8V19.5H30.5V21.8H30.4Z" fill="#FEDC90"/>
<path fill-rule="evenodd" clip-rule="evenodd" d="M7.00002 4.80005C6.60002 3.00005 8.00003 1.30005 9.80002 1.30005C11.4 1.30005 12.7 2.60005 12.7 4.20005V10.8C13.7 10.7 14.7 10.6 15.8 10.6C16.8 10.6 17.8 10.7 18.8 10.8V4.20005C18.8 2.60005 20.1 1.30005 21.7 1.30005C23.5 1.30005 24.9 3.00005 24.6 4.80005L23.3 12C27.5 13.6 30.4 16.4 30.4 19.6C30.4 24.5001 23.9 28.5 15.9 28.5C7.90002 28.5 1.40002 24.5001 1.40002 19.6C1.40002 16.4 4.20002 13.6 8.40002 12L7.00002 4.80005Z" fill="#D1884F"/>
<path d="M11.8 18.9C11.8 20.2 11.1 21.3 10.2 21.3C9.29998 21.3 8.59998 20.2 8.59998 18.9C8.59998 17.6 9.29998 16.5 10.2 16.5C11.1 16.5 11.8 17.6 11.8 18.9Z" fill="#633001"/>
<path d="M22.9 18.9C22.9 20.2 22.1999 21.3 21.2999 21.3C20.3999 21.3 19.7 20.2 19.7 18.9C19.7 17.6 20.3999 16.5 21.2999 16.5C22.1999 16.5 22.9 17.6 22.9 18.9Z" fill="#633001"/>
</g>
</g>
<defs>
<clipPath id="clip0_54_255">
<rect width="32" height="32" fill="white"/>
</clipPath>
<clipPath id="clip1_54_255">
<rect width="31.7" height="32" fill="white"/>
</clipPath>
</defs>
</svg>
