<svg width="32" height="32" viewBox="0 0 32 32" fill="none" xmlns="http://www.w3.org/2000/svg">
<g clip-path="url(#clip0_54_387)">
<g clip-path="url(#clip1_54_387)">
<path d="M-0.000244141 2.9978V8.36654V13.7353V19.1158H5.3685V13.7353V8.36654V2.9978H-0.000244141Z" fill="#424242"/>
<path d="M26.6318 13.7383V19.1188V24.4876V29.8563H32.0006V24.4876V19.1188V13.7383H26.6318Z" fill="#424242"/>
<path d="M15.8801 2.9978V8.36655V13.5111L21.2489 18.8798V13.7353V8.36655L15.8801 2.9978Z" fill="#424242"/>
<path d="M10.7458 13.9717V19.1162V24.485L16.1146 29.8537V24.485V19.3404L10.7458 13.9717Z" fill="#424242"/>
<path d="M15.8801 2.9978H21.2489L31.9982 13.7353H26.6294L15.8801 2.9978Z" fill="black"/>
<path d="M-0.000244141 19.1169H5.3685L16.1178 29.8544H10.749L-0.000244141 19.1169Z" fill="black"/>
<path d="M21.2492 8.36654V13.7353V18.809L5.36719 2.9978V8.36654V8.69693V13.7353V19.1158L10.7477 24.4846V19.1158V14.0421L26.6298 29.8533V24.4846V24.1542V19.1158V13.7353L21.2492 8.36654Z" fill="#3CC68A"/>
</g>
</g>
<defs>
<clipPath id="clip0_54_387">
<rect width="32" height="32" fill="white"/>
</clipPath>
<clipPath id="clip1_54_387">
<rect width="32.0001" height="26.8555" fill="white" transform="translate(0 3)"/>
</clipPath>
</defs>
</svg>
