<svg width="32" height="32" viewBox="0 0 32 32" fill="none" xmlns="http://www.w3.org/2000/svg">
<g clip-path="url(#clip0_54_376)">
<g clip-path="url(#clip1_54_376)">
<path fill-rule="evenodd" clip-rule="evenodd" d="M25.459 6.34443C25.334 6.21943 25.259 6.09443 25.259 5.91943C25.259 5.74443 25.334 5.61943 25.459 5.49443C25.709 5.26943 26.109 5.26943 26.384 5.49443C26.509 5.61943 26.584 5.74443 26.584 5.91943C26.584 6.09443 26.509 6.21943 26.384 6.34443C26.259 6.44443 26.084 6.51943 25.934 6.51943C25.759 6.54443 25.584 6.49443 25.459 6.34443Z" fill="#0D022B"/>
<path fill-rule="evenodd" clip-rule="evenodd" d="M23.854 8.06904C23.754 7.94404 23.679 7.81904 23.679 7.64404C23.679 7.46904 23.754 7.34404 23.854 7.21904C24.079 6.99404 24.479 6.99404 24.704 7.21904C24.804 7.34404 24.879 7.46904 24.879 7.64404C24.879 7.81904 24.804 7.94404 24.704 8.06904C24.579 8.16904 24.454 8.24404 24.279 8.24404C24.104 8.24404 23.979 8.16904 23.854 8.06904Z" fill="#0D022B"/>
<path fill-rule="evenodd" clip-rule="evenodd" d="M22.1054 9.72114C22.0054 9.62114 21.9304 9.47114 21.9304 9.29614C21.9304 9.12114 22.0054 8.99614 22.1054 8.87114C22.3304 8.64614 22.7304 8.64614 22.9554 8.87114C23.0554 8.97114 23.1304 9.12114 23.1304 9.29614C23.1304 9.47114 23.0554 9.59614 22.9554 9.72114C22.8304 9.84614 22.7054 9.89614 22.5304 9.89614C22.3554 9.89614 22.2054 9.82114 22.1054 9.72114Z" fill="#0D022B"/>
<path fill-rule="evenodd" clip-rule="evenodd" d="M20.43 11.3972C20.305 11.2972 20.23 11.1472 20.23 10.9722C20.23 10.7972 20.305 10.6722 20.43 10.5472C20.68 10.3222 21.08 10.3222 21.355 10.5472C21.48 10.6472 21.555 10.7972 21.555 10.9722C21.555 11.1472 21.48 11.2972 21.355 11.3972C21.23 11.5222 21.055 11.5722 20.905 11.5722C20.73 11.5722 20.58 11.5472 20.43 11.3972Z" fill="#0D022B"/>
<path fill-rule="evenodd" clip-rule="evenodd" d="M18.8371 13.0737C18.7121 12.9737 18.6621 12.8237 18.6621 12.6487C18.6621 12.4737 18.7371 12.3487 18.8371 12.2237C19.0621 11.9987 19.4621 11.9987 19.6871 12.2237C19.8121 12.3237 19.8621 12.4737 19.8621 12.6487C19.8621 12.8237 19.7871 12.9737 19.6871 13.0737C19.5871 13.1987 19.4371 13.2487 19.2621 13.2487C19.1121 13.2737 18.9371 13.2237 18.8371 13.0737Z" fill="#0D022B"/>
<path fill-rule="evenodd" clip-rule="evenodd" d="M16.9014 14.3247C16.9014 14.1497 16.9764 14.0247 17.0764 13.8997C17.3014 13.6747 17.7014 13.6747 17.9264 13.8997C18.0514 14.0247 18.1014 14.1497 18.1014 14.3247C18.1014 14.4997 18.0264 14.6247 17.9264 14.7497C17.8264 14.8497 17.6764 14.9247 17.5014 14.9247C17.3264 14.9247 17.2014 14.8497 17.0764 14.7497C16.9514 14.6497 16.9014 14.4997 16.9014 14.3247Z" fill="#0D022B"/>
<path fill-rule="evenodd" clip-rule="evenodd" d="M13.7844 18.018C13.6844 17.918 13.6094 17.768 13.6094 17.593C13.6094 17.418 13.6844 17.293 13.7844 17.168C14.0094 16.943 14.4094 16.943 14.6344 17.168C14.7594 17.293 14.8094 17.418 14.8094 17.593C14.8094 17.768 14.7344 17.893 14.6344 18.018C14.5344 18.143 14.3844 18.193 14.2094 18.193C14.0594 18.218 13.9094 18.168 13.7844 18.018Z" fill="#0D022B"/>
<path fill-rule="evenodd" clip-rule="evenodd" d="M12.0608 19.6943C11.9358 19.5943 11.8608 19.4443 11.8608 19.2693C11.8608 19.0943 11.9358 18.9693 12.0608 18.8443C12.3108 18.6193 12.7108 18.6193 12.9858 18.8443C13.1108 18.9693 13.1858 19.0943 13.1858 19.2693C13.1858 19.4443 13.1108 19.5693 12.9858 19.6943C12.8608 19.8193 12.6858 19.8693 12.5358 19.8693C12.3358 19.8943 12.1858 19.8193 12.0608 19.6943Z" fill="#0D022B"/>
<path fill-rule="evenodd" clip-rule="evenodd" d="M10.4318 21.3947C10.3318 21.2947 10.2568 21.1447 10.2568 20.9697C10.2568 20.7947 10.3318 20.6447 10.4318 20.5447C10.6568 20.3197 11.0568 20.3197 11.2818 20.5447C11.3818 20.6447 11.4568 20.7947 11.4568 20.9697C11.4568 21.1447 11.3818 21.2697 11.2818 21.3947C11.1568 21.5197 11.0318 21.5697 10.8568 21.5697C10.6818 21.5697 10.5818 21.4947 10.4318 21.3947Z" fill="#0D022B"/>
<path fill-rule="evenodd" clip-rule="evenodd" d="M8.75557 23.0707C8.63057 22.9707 8.58057 22.8207 8.58057 22.6457C8.58057 22.4707 8.65557 22.3458 8.75557 22.2208C8.98056 21.9958 9.38056 21.9958 9.60556 22.2208C9.70556 22.3458 9.78056 22.4707 9.78056 22.6457C9.78056 22.8207 9.70556 22.9707 9.60556 23.0707C9.48056 23.1957 9.35556 23.2457 9.18056 23.2457C9.03056 23.2457 8.85557 23.1957 8.75557 23.0707Z" fill="#0D022B"/>
<path fill-rule="evenodd" clip-rule="evenodd" d="M7.03203 24.747C6.90703 24.647 6.83203 24.497 6.83203 24.322C6.83203 24.147 6.90703 24.022 7.03203 23.897C7.28203 23.672 7.68203 23.672 7.90703 23.897C8.03203 24.022 8.10703 24.147 8.10703 24.322C8.10703 24.497 8.03203 24.647 7.90703 24.747C7.78203 24.847 7.60703 24.922 7.45703 24.922C7.28203 24.922 7.13203 24.872 7.03203 24.747Z" fill="#0D022B"/>
<path fill-rule="evenodd" clip-rule="evenodd" d="M5.39082 26.4235C5.26582 26.2985 5.21582 26.1735 5.21582 25.9985C5.21582 25.8235 5.29082 25.6985 5.39082 25.5735C5.61582 25.3485 6.01582 25.3485 6.24082 25.5735C6.36582 25.6985 6.41582 25.8235 6.41582 25.9985C6.41582 26.1735 6.34082 26.2985 6.24082 26.4235C6.14082 26.5235 5.99082 26.5985 5.81582 26.5985C5.69082 26.6235 5.54082 26.5485 5.39082 26.4235Z" fill="#0D022B"/>
<path fill-rule="evenodd" clip-rule="evenodd" d="M6.24082 6.34443C6.34082 6.21943 6.41582 6.09443 6.41582 5.91943C6.41582 5.74443 6.34082 5.61943 6.24082 5.49443C6.01582 5.26943 5.61582 5.26943 5.39082 5.49443C5.26582 5.61943 5.21582 5.74443 5.21582 5.91943C5.21582 6.09443 5.29082 6.21943 5.39082 6.34443C5.49082 6.44443 5.64082 6.51943 5.81582 6.51943C5.99082 6.54443 6.14082 6.49443 6.24082 6.34443Z" fill="#0D022B"/>
<path fill-rule="evenodd" clip-rule="evenodd" d="M7.90869 8.06904C8.03369 7.94404 8.10869 7.81904 8.10869 7.64404C8.10869 7.46904 8.03369 7.34404 7.90869 7.21904C7.65869 6.99404 7.25869 6.99404 6.98369 7.21904C6.85869 7.34404 6.78369 7.46904 6.78369 7.64404C6.78369 7.81904 6.85869 7.94404 6.98369 8.06904C7.10869 8.16904 7.28369 8.24404 7.43369 8.24404C7.60869 8.21904 7.78369 8.16904 7.90869 8.06904Z" fill="#0D022B"/>
<path fill-rule="evenodd" clip-rule="evenodd" d="M9.60556 9.72114C9.70556 9.62114 9.78056 9.47114 9.78056 9.29614C9.78056 9.12114 9.70556 8.99614 9.60556 8.87114C9.38056 8.64614 8.98056 8.64614 8.75557 8.87114C8.65557 8.97114 8.58057 9.12114 8.58057 9.29614C8.58057 9.47114 8.65557 9.59614 8.75557 9.72114C8.88057 9.84614 9.00556 9.89614 9.18056 9.89614C9.33056 9.89614 9.48056 9.82114 9.60556 9.72114Z" fill="#0D022B"/>
<path fill-rule="evenodd" clip-rule="evenodd" d="M11.2818 11.3972C11.3818 11.2972 11.4568 11.1472 11.4568 10.9722C11.4568 10.7972 11.3818 10.6722 11.2818 10.5472C11.0568 10.3222 10.6568 10.3222 10.4318 10.5472C10.3318 10.6472 10.2568 10.7972 10.2568 10.9722C10.2568 11.1472 10.3318 11.2972 10.4318 11.3972C10.5568 11.5222 10.6818 11.5722 10.8568 11.5722C11.0068 11.5722 11.1568 11.5472 11.2818 11.3972Z" fill="#0D022B"/>
<path fill-rule="evenodd" clip-rule="evenodd" d="M12.9358 13.0737C13.0608 12.9737 13.1358 12.8237 13.1358 12.6487C13.1358 12.4737 13.0608 12.3487 12.9358 12.2237C12.7108 11.9987 12.2858 11.9987 12.0608 12.2237C11.9358 12.3237 11.8608 12.4737 11.8608 12.6487C11.8608 12.8237 11.9358 12.9737 12.0608 13.0737C12.1858 13.1987 12.3608 13.2487 12.5108 13.2487C12.6608 13.2737 12.8358 13.2237 12.9358 13.0737Z" fill="#0D022B"/>
<path fill-rule="evenodd" clip-rule="evenodd" d="M14.8094 14.3247C14.8094 14.1497 14.7344 14.0247 14.6344 13.8997C14.4094 13.6747 14.0094 13.6747 13.7844 13.8997C13.6594 14.0247 13.6094 14.1497 13.6094 14.3247C13.6094 14.4997 13.6844 14.6247 13.7844 14.7497C13.8844 14.8497 14.0344 14.9247 14.2094 14.9247C14.3844 14.9247 14.5094 14.8497 14.6344 14.7497C14.7594 14.6497 14.8094 14.4997 14.8094 14.3247Z" fill="#0D022B"/>
<path fill-rule="evenodd" clip-rule="evenodd" d="M16.3109 16.4504C16.4359 16.3254 16.4859 16.2004 16.4859 16.0254C16.4859 15.8504 16.4109 15.7254 16.3109 15.6004C16.0859 15.3754 15.6859 15.3754 15.4609 15.6004C15.3359 15.7254 15.2859 15.8504 15.2859 16.0254C15.2859 16.2004 15.3609 16.3254 15.4609 16.4504C15.5609 16.5504 15.7109 16.6254 15.8859 16.6254C16.0609 16.6254 16.2109 16.5504 16.3109 16.4504Z" fill="#0D022B"/>
<path fill-rule="evenodd" clip-rule="evenodd" d="M17.9764 18.018C18.1014 17.918 18.1764 17.768 18.1764 17.593C18.1764 17.418 18.1014 17.293 17.9764 17.168C17.7264 16.943 17.3264 16.943 17.1014 17.168C16.9764 17.293 16.9014 17.418 16.9014 17.593C16.9014 17.768 16.9764 17.893 17.1014 18.018C17.2264 18.143 17.4014 18.193 17.5514 18.193C17.6764 18.218 17.8514 18.168 17.9764 18.018Z" fill="#0D022B"/>
<path fill-rule="evenodd" clip-rule="evenodd" d="M19.6871 19.6943C19.7871 19.5943 19.8621 19.4443 19.8621 19.2693C19.8621 19.0943 19.7871 18.9693 19.6871 18.8443C19.4621 18.6193 19.0621 18.6193 18.8371 18.8443C18.7371 18.9693 18.6621 19.0943 18.6621 19.2693C18.6621 19.4443 18.7371 19.5693 18.8371 19.6943C18.9621 19.8193 19.0871 19.8693 19.2621 19.8693C19.3871 19.8943 19.5621 19.8193 19.6871 19.6943Z" fill="#0D022B"/>
<path fill-rule="evenodd" clip-rule="evenodd" d="M21.3636 21.3947C21.4636 21.2947 21.5386 21.1447 21.5386 20.9697C21.5386 20.7947 21.4636 20.6447 21.3636 20.5447C21.1386 20.3197 20.7386 20.3197 20.5136 20.5447C20.4136 20.6447 20.3386 20.7947 20.3386 20.9697C20.3386 21.1447 20.4136 21.2697 20.5136 21.3947C20.6386 21.5197 20.7636 21.5697 20.9386 21.5697C21.1136 21.5697 21.2386 21.4947 21.3636 21.3947Z" fill="#0D022B"/>
<path fill-rule="evenodd" clip-rule="evenodd" d="M22.9315 23.0707C23.0565 22.9707 23.1065 22.8207 23.1065 22.6457C23.1065 22.4707 23.0315 22.3458 22.9315 22.2208C22.7065 21.9958 22.3065 21.9958 22.0815 22.2208C21.9815 22.3458 21.9065 22.4707 21.9065 22.6457C21.9065 22.8207 21.9815 22.9707 22.0815 23.0707C22.2065 23.1957 22.3315 23.2457 22.5065 23.2457C22.6565 23.2457 22.8315 23.1957 22.9315 23.0707Z" fill="#0D022B"/>
<path fill-rule="evenodd" clip-rule="evenodd" d="M24.704 24.747C24.829 24.647 24.879 24.497 24.879 24.322C24.879 24.147 24.804 24.022 24.704 23.897C24.479 23.672 24.079 23.672 23.854 23.897C23.729 24.022 23.679 24.147 23.679 24.322C23.679 24.497 23.754 24.647 23.854 24.747C23.954 24.847 24.104 24.922 24.279 24.922C24.454 24.922 24.604 24.872 24.704 24.747Z" fill="#0D022B"/>
<path fill-rule="evenodd" clip-rule="evenodd" d="M26.3821 26.4235C26.5071 26.2985 26.5821 26.1735 26.5821 25.9985C26.5821 25.8235 26.5071 25.6985 26.3821 25.5735C26.1321 25.3485 25.7321 25.3485 25.5071 25.5735C25.3821 25.6985 25.3071 25.8235 25.3071 25.9985C25.3071 26.1735 25.3821 26.2985 25.5071 26.4235C25.6321 26.5235 25.8071 26.5985 25.9571 26.5985C26.0821 26.6235 26.2321 26.5485 26.3821 26.4235Z" fill="#0D022B"/>
<path fill-rule="evenodd" clip-rule="evenodd" d="M10.2141 6.82057C11.9141 5.69558 13.7891 5.17058 15.8641 5.14558C17.8891 5.14558 19.7641 5.69558 21.5141 6.82057L25.1141 3.22059C22.2891 1.0706 19.2391 -0.00439453 15.8641 -0.00439453C12.4891 -0.00439453 9.38915 1.0706 6.63916 3.22059L10.2141 6.82057Z" fill="#0D022B"/>
<path fill-rule="evenodd" clip-rule="evenodd" d="M6.61071 21.596C5.46072 19.846 4.91072 17.996 4.91072 15.996C4.91072 13.971 5.46072 12.096 6.61071 10.396L3.03573 6.82104C0.935738 9.57103 -0.114258 12.621 -0.114258 16.021C-0.114258 19.371 0.935737 22.446 3.06073 25.246L6.61071 21.596Z" fill="#0D022B"/>
<path fill-rule="evenodd" clip-rule="evenodd" d="M21.4899 25.1755C19.7899 26.3255 17.9149 26.9255 15.8899 26.9505C13.815 26.9505 11.915 26.4005 10.215 25.2005L6.61499 28.7755C9.38998 30.9505 12.49 32.0255 15.8899 32.0005C19.2649 31.9755 22.3149 30.8755 25.0649 28.7755L21.4899 25.1755Z" fill="#0D022B"/>
<path fill-rule="evenodd" clip-rule="evenodd" d="M25.0054 10.3504C26.1554 12.1004 26.7554 14.0004 26.7054 16.0504C26.6804 18.0504 26.1054 19.8754 25.0054 21.5504L28.6054 25.1254C30.7303 22.3754 31.8303 19.3254 31.8303 15.9754C31.8553 12.5754 30.7803 9.47543 28.6054 6.70044L25.0054 10.3504Z" fill="#0D022B"/>
<path fill-rule="evenodd" clip-rule="evenodd" d="M28.7606 26.2969C30.1356 26.2969 31.2856 27.4219 31.2856 28.8219C31.2856 30.1969 30.1606 31.3469 28.7606 31.3469C27.3856 31.3469 26.2356 30.2219 26.2356 28.8219C26.2356 27.4219 27.3606 26.2969 28.7606 26.2969Z" fill="#0D022B"/>
<path fill-rule="evenodd" clip-rule="evenodd" d="M3.01293 26.2969C4.38792 26.2969 5.51292 27.4219 5.51292 28.8219C5.51292 30.1969 4.38792 31.3469 3.01293 31.3469C1.63793 31.3469 0.512939 30.2219 0.512939 28.8219C0.512939 27.4219 1.63793 26.2969 3.01293 26.2969Z" fill="#0D022B"/>
<path fill-rule="evenodd" clip-rule="evenodd" d="M28.8081 0.549805C30.1831 0.549805 31.3081 1.6748 31.3081 3.07479C31.3081 4.47479 30.1831 5.59978 28.8081 5.59978C27.4331 5.59978 26.3081 4.47479 26.3081 3.07479C26.3081 1.6748 27.4331 0.549805 28.8081 0.549805Z" fill="#0D022B"/>
<path fill-rule="evenodd" clip-rule="evenodd" d="M2.96542 0.549805C4.34041 0.549805 5.49041 1.6748 5.49041 3.04979C5.49041 4.42479 4.36541 5.54978 2.96542 5.54978C1.59042 5.54978 0.44043 4.42479 0.44043 3.04979C0.44043 1.6748 1.56542 0.549805 2.96542 0.549805Z" fill="#0D022B"/>
</g>
</g>
<defs>
<clipPath id="clip0_54_376">
<rect width="32" height="32" fill="white"/>
</clipPath>
<clipPath id="clip1_54_376">
<rect width="31.9249" height="31.9999" fill="white" transform="translate(-0.112793)"/>
</clipPath>
</defs>
</svg>
