<svg width="32" height="32" viewBox="0 0 32 32" fill="none" xmlns="http://www.w3.org/2000/svg">
<g clip-path="url(#clip0_54_241)">
<path d="M9.0464 2.00176C16.6965 1.99941 24.3471 1.99941 31.9982 2.00176C32.0006 4.47458 32.0006 6.94697 31.9982 9.41893C24.3479 9.42127 16.6973 9.42127 9.0464 9.41893C9.04394 6.94611 9.04394 4.47372 9.0464 2.00176Z" fill="#02A6C2"/>
<path d="M0.00959986 12.2096C2.47772 12.1968 4.94627 12.1968 7.41525 12.2096C7.42805 14.6777 7.42805 17.1462 7.41525 19.6152C4.94638 19.6279 2.47783 19.6281 0.00959986 19.6158C-0.00319995 17.1473 -0.00319995 14.6785 0.00959986 12.2096Z" fill="#5FCADE"/>
<path d="M9.05222 12.2095C14.5739 12.1978 20.0953 12.1978 25.6163 12.2095C25.628 14.6776 25.628 17.1462 25.6163 19.6151C20.0947 19.6267 14.5733 19.6267 9.05222 19.6151C9.0407 17.1469 9.0407 14.6784 9.05222 12.2095Z" fill="#5FCADE"/>
<path d="M9.05902 22.4195C11.523 22.3927 13.9865 22.3927 16.4496 22.4195C16.4752 24.8819 16.4756 27.3454 16.4507 29.8101C13.9868 29.8344 11.5233 29.834 9.0603 29.8088C9.0347 27.3467 9.03427 24.8836 9.05902 22.4195Z" fill="#ABEBF4"/>
</g>
<defs>
<clipPath id="clip0_54_241">
<rect width="32" height="27.8279" fill="white" transform="translate(0 2)"/>
</clipPath>
</defs>
</svg>
