<svg width="32" height="32" viewBox="0 0 32 32" fill="none" xmlns="http://www.w3.org/2000/svg">
<g clip-path="url(#clip0_54_354)">
<g clip-path="url(#clip1_54_354)">
<path d="M15.9746 -0.0507812C24.8066 -0.0507812 31.9746 7.11721 31.9746 15.9492C31.9746 24.7812 24.8066 31.9492 15.9746 31.9492C7.1426 31.9492 -0.0253906 24.7812 -0.0253906 15.9492C-0.0253906 7.11721 7.1426 -0.0507812 15.9746 -0.0507812Z" fill="#071630"/>
<path opacity="0.9" d="M26.3044 23.0782C26.3044 23.5262 25.9204 23.8462 25.3444 23.8462C24.8324 23.8462 24.4484 23.5262 24.4484 23.0782V11.3662C24.4484 11.3022 24.4484 11.3022 24.3844 11.3022C24.3204 11.3022 24.3204 11.3022 24.2564 11.3022L16.8964 20.7102C16.5764 21.0302 16.0004 21.1582 15.6164 20.9022C15.4884 20.8382 15.4244 20.7742 15.3604 20.7102L8.00039 11.3022C7.93639 11.3022 7.93639 11.3022 7.87239 11.3022L7.80839 11.3662V23.1422C7.80839 23.5902 7.36039 23.9102 6.84839 23.9102C6.33639 23.9102 5.95239 23.5902 5.95239 23.1422V9.06222C5.95239 8.80622 6.14439 8.55022 6.33639 8.42222C6.78439 8.16622 7.29639 8.29422 7.61639 8.61422L15.7444 18.9182C15.9364 19.1102 16.1924 19.1102 16.3844 18.9822C16.3844 18.9822 16.4484 18.9822 16.4484 18.9182L24.5764 8.61422C24.7684 8.35822 25.0884 8.23022 25.4084 8.23022C25.9204 8.23022 26.3684 8.55022 26.3684 8.99822L26.3044 23.0782Z" fill="url(#paint0_linear_54_354)"/>
<path d="M26.3016 23.1065C26.3016 23.4905 25.9176 23.8745 25.3416 23.8745C25.0216 23.8745 24.7016 23.7465 24.5096 23.4905L16.4457 13.1865C16.2537 12.9945 15.9977 12.9945 15.8057 13.1225C15.8057 13.1225 15.7417 13.1865 15.6777 13.3145L7.67767 23.5545C7.35767 23.9385 6.84567 24.0025 6.39767 23.7465C6.14167 23.6185 6.01367 23.3625 6.01367 23.1065V9.09051C6.01367 8.64251 6.39767 8.32251 6.90967 8.32251C7.42167 8.32251 7.86967 8.64251 7.86967 9.09051V20.8665C7.86967 20.9305 7.86967 20.9305 7.93367 20.9305C7.99767 20.9305 7.99767 20.9305 8.06167 20.9305L15.2297 11.7785C15.2937 11.6505 15.5497 11.3945 15.6777 11.3305C16.1257 11.0745 16.6377 11.1385 16.9577 11.5225L24.2537 20.9305C24.2537 20.9305 24.3176 20.9305 24.3816 20.9305C24.4456 20.9305 24.4456 20.8665 24.4456 20.8665V9.09051C24.4456 8.64251 24.8296 8.32251 25.3416 8.32251C25.8536 8.32251 26.3016 8.64251 26.3016 9.09051V23.1065Z" fill="url(#paint1_linear_54_354)"/>
</g>
</g>
<defs>
<linearGradient id="paint0_linear_54_354" x1="16.1604" y1="23.8592" x2="16.1604" y2="8.30031" gradientUnits="userSpaceOnUse">
<stop stop-color="#3F5CAA"/>
<stop offset="0.2" stop-color="#3F5FAC"/>
<stop offset="0.33" stop-color="#4168B2"/>
<stop offset="0.46" stop-color="#4378BD"/>
<stop offset="0.57" stop-color="#468ECC"/>
<stop offset="0.64" stop-color="#48A0D9"/>
<stop offset="0.8" stop-color="#3ABBEC"/>
<stop offset="0.9" stop-color="#35C6F4"/>
</linearGradient>
<linearGradient id="paint1_linear_54_354" x1="16.1577" y1="23.9002" x2="16.1577" y2="8.32251" gradientUnits="userSpaceOnUse">
<stop stop-color="#4068B1"/>
<stop offset="0.13" stop-color="#3D7FC1"/>
<stop offset="0.39" stop-color="#39A5DD"/>
<stop offset="0.59" stop-color="#36BDEE"/>
<stop offset="0.72" stop-color="#35C6F4"/>
</linearGradient>
<clipPath id="clip0_54_354">
<rect width="32" height="32" fill="white"/>
</clipPath>
<clipPath id="clip1_54_354">
<rect width="32" height="32" fill="white"/>
</clipPath>
</defs>
</svg>
