<svg width="32" height="32" viewBox="0 0 32 32" fill="none" xmlns="http://www.w3.org/2000/svg">
<g clip-path="url(#clip0_54_466)">
<path d="M0 7.01754C0 3.14187 3.14187 0 7.01754 0H24.9825C28.8581 0 32 3.14187 32 7.01754V24.9825C32 28.8581 28.8581 32 24.9825 32H7.01754C3.14187 32 0 28.8581 0 24.9825V7.01754Z" fill="#FEDA03"/>
<path fill-rule="evenodd" clip-rule="evenodd" d="M24.1062 13.396C24.1062 14.9311 23.2093 15.6946 22.2015 15.9599C23.4078 16.3214 24.2808 17.31 24.2808 18.8772V21.7544H19.6775V19.0219C19.6775 18.186 19.1855 17.8484 18.3442 17.8484H12.8839V21.7544H8.28076V10.2456H19.2173C21.9633 10.2456 24.1062 10.8403 24.1062 13.396ZM12.886 13.461H19.109V13.4615C19.1182 13.4612 19.1276 13.461 19.1369 13.461C19.5648 13.461 19.9118 13.8123 19.9118 14.2456C19.9118 14.6789 19.5648 15.0302 19.1369 15.0302C19.1276 15.0302 19.1182 15.03 19.109 15.0297V15.0302H12.886V13.461Z" fill="black"/>
</g>
<defs>
<clipPath id="clip0_54_466">
<rect width="32" height="32" fill="white"/>
</clipPath>
</defs>
</svg>
